<svg width="160" height="160" viewBox="0 0 160 160" fill="none" xmlns="http://www.w3.org/2000/svg">
<path d="M150 0C155.523 0 160 4.47715 160 10V150C160 155.523 155.523 160 150 160H90C128.66 160 160 128.66 160 90C160 51.3401 128.66 20 90 20C51.3401 20 20 51.3401 20 90C20 128.66 51.3401 160 90 160H10C4.47715 160 0 155.523 0 150V10C0 4.47715 4.47715 0 10 0H150ZM138.7 101.375C133.551 123.509 113.701 140 90 140C87.364 140 84.7758 139.794 82.25 139.401V101.375H138.7ZM62.25 101.375V131.596C51.8613 124.651 44.2186 113.921 41.2998 101.375H62.25ZM90 40C93.2618 40 96.4505 40.3128 99.5381 40.9092L100.162 81.375H40.7422C44.8291 57.8711 65.327 40 90 40ZM119.678 49.7588C129.807 57.2419 137.012 68.4569 139.258 81.375H120.164L119.678 49.7588Z" fill="#FAFAFA"/>
</svg>
